<svg width="200" height="60" viewBox="0 0 200 60" fill="none" xmlns="http://www.w3.org/2000/svg">
  <g>
    <!-- Abstract Forge Shape -->
    <path d="M80 50C86 50 91 45 91 39C91 33 86 28 80 28C74 28 69 33 69 39C69 45 74 50 80 50Z" fill="#9FA9FF"/>
    <path d="M60 50C65 50 70 45 70 39C70 33 65 28 60 28C54 28 49 33 49 39C49 45 54 50 60 50Z" fill="#4059DB" fill-opacity="0.76"/>
    <path d="M100 50C105 50 110 45 110 39C110 33 105 28 100 28C94 28 89 33 89 39C89 45 94 50 100 50Z" fill="#4059DB" fill-opacity="0.76"/>
  </g>
  <!-- Web Forge Text -->
  <text x="120" y="45" fill="#4059DB" font-size="20" font-weight="bold" font-family="Arial, sans-serif">Web Forge</text>
</svg>
